<svg width="405" height="375" viewBox="0 0 405 375" fill="none" xmlns="http://www.w3.org/2000/svg">
<path d="M273.593 138.59C285.857 160.257 289.481 185.757 283.74 209.984C278 234.21 263.318 255.373 242.635 269.233C221.953 283.093 196.797 288.627 172.208 284.727C147.618 280.826 125.41 267.779 110.032 248.199C94.6538 228.619 87.2415 203.951 89.2797 179.138C91.3179 154.324 102.656 131.197 121.023 114.388C139.39 97.5797 163.429 88.3314 188.326 88.4956C213.222 88.6598 237.138 98.2246 255.281 115.274L306.337 42.7147C268.952 11.9261 221.093 -3.18244 172.806 0.560513C124.52 4.30347 79.561 26.6069 47.367 62.789C15.1731 98.971 -1.75234 146.218 0.143711 194.612C2.03976 243.006 22.6098 288.784 57.5359 322.337C92.462 355.889 139.028 374.607 187.459 374.56C235.891 374.514 282.421 355.707 317.283 322.088C352.145 288.469 372.627 242.652 374.43 194.254C376.234 145.856 359.218 98.6416 326.955 62.5213L273.593 138.59Z" fill="#EEF1FA"/>
<path d="M140.246 181.454H105.865L90.7825 202.882C92.6495 214.441 96.5732 225.572 102.367 235.746L140.246 181.454Z" fill="#EEF1FA"/>
<path d="M246.727 128.746H212.346L120.679 259.021C127.613 265.54 135.452 271.023 143.954 275.299L246.727 128.746Z" fill="#EEF1FA"/>
<path d="M370.23 0.276489L171.38 284.295C182.969 286.299 194.825 286.186 206.374 283.962L405 0.276489H370.23Z" fill="#EEF1FA"/>
</svg>
