<svg xmlns:xlink="http://www.w3.org/1999/xlink" width="10" height="5" viewBox="0 0 10 5" fill="none" xmlns="http://www.w3.org/2000/svg">
					<path class="mainMenuSvg" d="M9.9998 0.575983C10.0033 0.461206 9.96058 0.348472 9.87763 0.253431C9.79467 0.15839 9.67558 0.0857945 9.53699 0.0457591C9.39841 0.00572369 9.24719 0.00025329 9.1044 0.0300803C8.96161 0.0599073 8.83436 0.123544 8.74035 0.212165L5.00619 3.59652L1.27391 0.212165C1.15969 0.098929 0.993174 0.0246803 0.809641 0.00513404C0.626108 -0.0144122 0.439995 0.0223113 0.290716 0.107484C0.141438 0.192656 0.0407059 0.319563 0.00991544 0.461394C-0.020875 0.603224 0.0206778 0.748836 0.125749 0.867295C0.14726 0.890225 0.171341 0.911593 0.197704 0.931234L4.46501 4.80594C4.52567 4.86119 4.59977 4.9066 4.68305 4.93959C4.76634 4.97259 4.8572 4.99257 4.95042 4.99829C5.04363 5.00401 5.13737 4.99536 5.2263 4.97293C5.31523 4.95051 5.39758 4.91471 5.46866 4.86755C5.49719 4.8487 5.52374 4.82809 5.54801 4.80594L9.82024 0.931234C9.93303 0.83341 9.99658 0.707264 9.9992 0.575983H9.9998Z" fill="#FFFFFF"></path>
					</svg>