<svg width="190" height="159" viewBox="0 0 190 159" fill="none" xmlns="http://www.w3.org/2000/svg">
<mask id="mask0_179_619" style="mask-type:alpha" maskUnits="userSpaceOnUse" x="0" y="0" width="190" height="159">
<path d="M190 -8.30516e-06L6.95011e-06 159L190 159L190 -8.30516e-06Z" fill="#C4C4C4"/>
</mask>
<g mask="url(#mask0_179_619)">
<path d="M19.2121 325.515L568.086 -111.163" stroke="#A7A0B1" stroke-width="5" stroke-miterlimit="10"/>
<path d="M12.9425 318.433L561.817 -118.244" stroke="#A7A0B1" stroke-width="5" stroke-miterlimit="10"/>
<path d="M6.6749 311.35L555.549 -125.327" stroke="#A7A0B1" stroke-width="5" stroke-miterlimit="10"/>
<path d="M0.407274 304.267L549.282 -132.41" stroke="#A7A0B1" stroke-width="5" stroke-miterlimit="10"/>
<path d="M-5.8622 297.184L543.012 -139.493" stroke="#A7A0B1" stroke-width="5" stroke-miterlimit="10"/>
<path d="M-12.1298 290.102L536.745 -146.575" stroke="#A7A0B1" stroke-width="5" stroke-miterlimit="10"/>
<path d="M-18.3993 283.018L530.475 -153.659" stroke="#A7A0B1" stroke-width="5" stroke-miterlimit="10"/>
<path d="M-24.6669 275.936L524.208 -160.742" stroke="#A7A0B1" stroke-width="5" stroke-miterlimit="10"/>
<path d="M-30.9365 268.852L517.938 -167.825" stroke="#A7A0B1" stroke-width="5" stroke-miterlimit="10"/>
<path d="M-43.4735 254.687L505.401 -181.991" stroke="#A7A0B1" stroke-width="5" stroke-miterlimit="10"/>
<path d="M-56.0087 240.52L492.866 -196.157" stroke="#A7A0B1" stroke-width="5" stroke-miterlimit="10"/>
<path d="M-68.5457 226.354L480.329 -210.323" stroke="#A7A0B1" stroke-width="5" stroke-miterlimit="10"/>
<path d="M-81.0868 212.183L467.788 -224.494" stroke="#A7A0B1" stroke-width="5" stroke-miterlimit="10"/>
<path d="M-93.624 198.017L455.25 -238.66" stroke="#A7A0B1" stroke-width="5" stroke-miterlimit="10"/>
<path d="M-106.161 183.851L442.713 -252.826" stroke="#A7A0B1" stroke-width="5" stroke-miterlimit="10"/>
<path d="M-118.698 169.685L430.176 -266.992" stroke="#A7A0B1" stroke-width="5" stroke-miterlimit="10"/>
<path d="M-37.2041 261.77L511.67 -174.907" stroke="#A7A0B1" stroke-width="5" stroke-miterlimit="10"/>
<path d="M-49.7413 247.604L499.133 -189.073" stroke="#A7A0B1" stroke-width="5" stroke-miterlimit="10"/>
<path d="M-62.2764 233.438L486.598 -203.24" stroke="#A7A0B1" stroke-width="5" stroke-miterlimit="10"/>
<path d="M-74.8192 219.266L474.055 -217.411" stroke="#A7A0B1" stroke-width="5" stroke-miterlimit="10"/>
<path d="M-87.3586 205.102L233.711 -50.3372L461.518 -231.577" fill="white"/>
<path d="M-87.3586 205.102L233.711 -50.3372L461.518 -231.577" stroke="#A7A0B1" stroke-width="5"/>
<path d="M-99.8915 190.935L448.983 -245.742" stroke="#A7A0B1" stroke-width="5" stroke-miterlimit="10"/>
<path d="M-112.429 176.769L436.446 -259.909" stroke="#A7A0B1" stroke-width="5" stroke-miterlimit="10"/>
<path d="M-124.966 162.603L423.909 -274.074" stroke="#A7A0B1" stroke-width="5" stroke-miterlimit="10"/>
<path d="M-131.235 155.52L417.639 -281.157" stroke="#A7A0B1" stroke-width="5" stroke-miterlimit="10"/>
<path d="M-137.503 148.437L411.372 -288.24" stroke="#A7A0B1" stroke-width="5" stroke-miterlimit="10"/>
<path d="M-143.772 141.354L405.102 -295.323" stroke="#A7A0B1" stroke-width="5" stroke-miterlimit="10"/>
<path d="M-150.04 134.271L398.834 -302.406" stroke="#A7A0B1" stroke-width="5" stroke-miterlimit="10"/>
<path d="M-156.307 127.188L392.567 -309.49" stroke="#A7A0B1" stroke-width="5" stroke-miterlimit="10"/>
<path d="M-162.575 120.105L386.299 -316.572" stroke="#A7A0B1" stroke-width="5" stroke-miterlimit="10"/>
<path d="M-168.845 113.022L380.03 -323.655" stroke="#A7A0B1" stroke-width="5" stroke-miterlimit="10"/>
<path d="M-175.112 105.939L373.762 -330.738" stroke="#A7A0B1" stroke-width="5" stroke-miterlimit="10"/>
<path d="M-181.382 98.8562L367.493 -337.821" stroke="#A7A0B1" stroke-width="5" stroke-miterlimit="10"/>
<path d="M-187.649 91.7735L361.225 -344.904" stroke="#A7A0B1" stroke-width="5" stroke-miterlimit="10"/>
<path d="M-193.919 84.6906L354.956 -351.987" stroke="#A7A0B1" stroke-width="5" stroke-miterlimit="10"/>
<path d="M-200.186 77.6078L348.688 -359.069" stroke="#A7A0B1" stroke-width="5" stroke-miterlimit="10"/>
<path d="M-206.456 70.5244L342.418 -366.152" stroke="#A7A0B1" stroke-width="5" stroke-miterlimit="10"/>
<path d="M-212.724 63.4419L336.151 -373.235" stroke="#A7A0B1" stroke-width="5" stroke-miterlimit="10"/>
<path d="M-218.991 56.3585L329.883 -380.319" stroke="#A7A0B1" stroke-width="5" stroke-miterlimit="10"/>
<path d="M-225.261 49.2762L323.614 -387.401" stroke="#A7A0B1" stroke-width="5" stroke-miterlimit="10"/>
<path d="M-231.528 42.1928L317.346 -394.484" stroke="#A7A0B1" stroke-width="5" stroke-miterlimit="10"/>
<path d="M-244.065 28.0262L304.809 -408.65" stroke="#A7A0B1" stroke-width="5" stroke-miterlimit="10"/>
<path d="M-256.603 13.8608L292.272 -422.816" stroke="#A7A0B1" stroke-width="5" stroke-miterlimit="10"/>
<path d="M-269.144 -0.3107L279.731 -436.988" stroke="#A7A0B1" stroke-width="5" stroke-miterlimit="10"/>
<path d="M-237.798 35.1108L311.077 -401.567" stroke="#A7A0B1" stroke-width="5" stroke-miterlimit="10"/>
<path d="M-250.333 20.9439L298.542 -415.733" stroke="#A7A0B1" stroke-width="5" stroke-miterlimit="10"/>
<path d="M-262.876 6.77232L285.999 -429.905" stroke="#A7A0B1" stroke-width="5" stroke-miterlimit="10"/>
</g>
</svg>
