<svg xmlns="http://www.w3.org/2000/svg" width="39.84" height="39.6" viewBox="0 0 39.84 39.6"><defs><style>.a{fill:#0577b5;}.b{fill:#fff;}</style></defs><g transform="translate(-499.02 -5001.53)"><ellipse class="a" cx="19.92" cy="19.8" rx="19.92" ry="19.8" transform="translate(499.02 5001.53)"/><path class="b" d="M514.4,5028.683h-3.784v-11.449H514.4ZM512.5,5015.67h-.027a2.167,2.167,0,1,1,.027,0Zm15.541,13.013h-3.784v-6.125c0-1.54-.55-2.588-1.919-2.588a2.073,2.073,0,0,0-1.943,1.391,2.674,2.674,0,0,0-.125.929v6.394h-3.784s.052-10.375,0-11.449h3.784v1.621a3.759,3.759,0,0,1,3.413-1.891c2.488,0,4.357,1.637,4.357,5.154Z"/></g></svg>