<svg xmlns:xlink="http://www.w3.org/1999/xlink" id="showNr" width="20" height="20" viewBox="0 0 20 20" fill="none" xmlns="http://www.w3.org/2000/svg"><g opacity="1" fill="none">
            <path d="M15.7697 12.0623C15.5238 11.8157 15.1992 11.6628 14.8521 11.6304C14.5051 11.598 14.1577 11.688 13.8703 11.8849L11.5697 13.4593C11.4936 13.5136 11.4005 13.5389 11.3073 13.5305C11.2141 13.5221 11.127 13.4806 11.0618 13.4136L10.3012 12.6532C10.1975 12.5498 10.0569 12.4918 9.91027 12.4918C9.76368 12.4918 9.62308 12.5498 9.5193 12.6532C9.41678 12.7579 9.35937 12.8985 9.35937 13.0449C9.35937 13.1913 9.41678 13.3319 9.5193 13.4366L10.281 14.1972C10.5272 14.4434 10.8518 14.596 11.1987 14.6284C11.5455 14.6608 11.8928 14.571 12.1804 14.3747L14.4836 12.8003C14.5595 12.7454 14.6528 12.7199 14.7461 12.7283C14.8394 12.7367 14.9266 12.7785 14.9914 12.846L18.5969 16.4539C18.6331 16.4898 18.6619 16.5324 18.6815 16.5794C18.7011 16.6264 18.7112 16.6769 18.7112 16.7278C18.7112 16.7787 18.7011 16.8291 18.6815 16.8761C18.6619 16.9231 18.6331 16.9658 18.5969 17.0016C18.2463 17.3533 17.852 17.6587 17.4237 17.9102L14.5848 15.0732C14.4801 14.9736 14.3404 14.919 14.1958 14.921C14.0512 14.923 13.9131 14.9815 13.8112 15.084C13.7093 15.1864 13.6516 15.3247 13.6505 15.4691C13.6494 15.6135 13.7051 15.7526 13.8055 15.8565L16.3446 18.3921C15.3092 18.7441 14.1958 18.7995 13.1304 18.5522C12.065 18.3048 11.0903 17.7646 10.3166 16.9925L3.0002 9.67643C1.90252 8.5788 1.28598 7.09101 1.28598 5.5398C1.28598 3.9886 1.90252 2.5008 3.0002 1.40317C3.07432 1.3322 3.17304 1.29257 3.27573 1.29257C3.37842 1.29257 3.47714 1.3322 3.55126 1.40317L7.15699 5.0114C7.22459 5.0762 7.26646 5.16321 7.27488 5.2564C7.28329 5.3496 7.25768 5.44269 7.20277 5.51851L6.31648 6.8141L3.81029 4.29504C3.70568 4.19434 3.56564 4.13872 3.42034 4.14017C3.27505 4.14162 3.13615 4.20002 3.03357 4.30278C2.931 4.40555 2.87297 4.54444 2.87199 4.68953C2.87101 4.83462 2.92717 4.97428 3.02835 5.07841L5.67927 7.73064L5.62581 7.80673C5.42955 8.09508 5.33995 8.44266 5.37237 8.78979C5.4048 9.13693 5.55724 9.46196 5.80352 9.70909L6.94857 10.8525C6.99942 10.9058 7.06044 10.9483 7.12803 10.9777C7.19561 11.007 7.2684 11.0226 7.3421 11.0234C7.4158 11.0242 7.48892 11.0103 7.55715 10.9825C7.62537 10.9546 7.68733 10.9134 7.73936 10.8613C7.79139 10.8092 7.83245 10.7472 7.8601 10.6789C7.88776 10.6107 7.90146 10.5377 7.9004 10.4641C7.89933 10.3905 7.88352 10.3179 7.85391 10.2505C7.82429 10.1831 7.78146 10.1223 7.72795 10.0717L6.58575 8.92316C6.52164 8.85952 6.48194 8.77543 6.47357 8.68556C6.46521 8.59568 6.4887 8.50573 6.53997 8.43139L8.12688 6.12925C8.32394 5.84136 8.41427 5.49384 8.38229 5.14658C8.35032 4.79933 8.19805 4.47408 7.95172 4.2269L4.33348 0.620938C4.19459 0.482244 4.02971 0.372226 3.84825 0.297165C3.66678 0.222104 3.47229 0.183472 3.27587 0.183472C3.07945 0.183472 2.88496 0.222104 2.7035 0.297165C2.52203 0.372226 2.35715 0.482244 2.21826 0.620938C0.91597 1.92712 0.18483 3.69523 0.18483 5.53838C0.18483 7.38154 0.91597 9.14965 2.21826 10.4558L9.54119 17.7813C10.8458 19.0835 12.615 19.815 14.4596 19.815C16.3042 19.815 18.0733 19.0835 19.378 17.7813C19.658 17.5005 19.8152 17.1204 19.8152 16.7241C19.8152 16.3278 19.658 15.9477 19.378 15.6669L15.7697 12.0623Z" fill="#FFFFFF"></path></g>
        </svg>