<svg xmlns="http://www.w3.org/2000/svg" width="86" height="86" viewBox="0 0 86 86"><defs><style>.a{fill:#2cb4f0;}.b{fill:#fff;}</style></defs><g transform="translate(-0.471 -0.471)"><g transform="translate(0.471 0.471)"><circle class="a" cx="43" cy="43" r="43"/><path class="b" d="M90.2,51.1H86.638V48.757a1.2,1.2,0,1,0-2.391-.13V51.1H62.077V48.757a1.2,1.2,0,1,0-2.391-.13V51.1H56.165A3.544,3.544,0,0,0,52.6,54.626V89.533A3.581,3.581,0,0,0,56.165,93.1H90.115a3.581,3.581,0,0,0,3.565-3.565h0V54.669A3.453,3.453,0,0,0,90.2,51.1Zm1.174,38.428A1.169,1.169,0,0,1,90.2,90.707H56.208a1.169,1.169,0,0,1-1.174-1.174h0V64.059H91.376Zm0-27.821H55.034V54.669A1.169,1.169,0,0,1,56.208,53.5h3.565v2.347a1.2,1.2,0,0,0,2.391.13V53.452h22.17V55.8a1.2,1.2,0,1,0,2.391.13V53.452h3.565a1.169,1.169,0,0,1,1.174,1.174h0l-.087,7.086Z" transform="translate(-30.205 -27.319)"/><path class="b" d="M82.555,111.028h0a1.094,1.094,0,0,1-.869-.391L76.9,105.116a1.161,1.161,0,0,1,1.739-1.521l3.956,4.564L95.031,94.6a1.17,1.17,0,0,1,1.739,1.565L83.425,110.68A1.292,1.292,0,0,1,82.555,111.028Z" transform="translate(-43.816 -53.726)"/></g></g></svg>