<svg xmlns="http://www.w3.org/2000/svg" xmlns:xlink="http://www.w3.org/1999/xlink" width="158.583" height="189.465" viewBox="0 0 158.583 189.465"><defs><style>.a{fill:none;stroke:#707070;}.b{clip-path:url(#a);}.c,.d{fill:#fff;stroke:#a7a0b1;stroke-width:5px;}.c{stroke-miterlimit:10;}</style><clipPath id="a"><path class="a" d="M207.067-26.475,48.484,162.99H207.067Z" transform="translate(0 0.215)"/></clipPath></defs><g class="b" transform="translate(-48.484 26.26)"><g transform="translate(123.664 366.475) rotate(-140)"><line class="c" y1="716.697" x2="0.225" transform="translate(0 0.193)"/><line class="c" y1="716.697" x2="0.225" transform="translate(9.755 0.19)"/><line class="c" y1="716.697" x2="0.225" transform="translate(19.511 0.187)"/><line class="c" y1="716.697" x2="0.225" transform="translate(29.266 0.184)"/><line class="c" y1="716.697" x2="0.225" transform="translate(39.022 0.181)"/><line class="c" y1="716.697" x2="0.225" transform="translate(48.777 0.178)"/><line class="c" y1="716.697" x2="0.225" transform="translate(58.533 0.175)"/><line class="c" y1="716.697" x2="0.225" transform="translate(68.288 0.172)"/><line class="c" y1="716.697" x2="0.225" transform="translate(78.044 0.169)"/><line class="c" y1="716.697" x2="0.225" transform="translate(97.555 0.163)"/><line class="c" y1="716.697" x2="0.225" transform="translate(117.066 0.156)"/><line class="c" y1="716.697" x2="0.225" transform="translate(136.577 0.15)"/><line class="c" y1="716.697" x2="0.225" transform="translate(156.096 0.144)"/><line class="c" y1="716.697" x2="0.225" transform="translate(175.607 0.138)"/><line class="c" y1="716.697" x2="0.225" transform="translate(195.118 0.132)"/><line class="c" y1="716.697" x2="0.225" transform="translate(214.629 0.126)"/><line class="c" y1="716.697" x2="0.225" transform="translate(87.799 0.166)"/><line class="c" y1="716.697" x2="0.225" transform="translate(107.31 0.16)"/><line class="c" y1="716.697" x2="0.225" transform="translate(126.821 0.153)"/><line class="c" y1="716.697" x2="0.225" transform="translate(146.34 0.147)"/><path class="d" d="M0,716.7l.132-419.24L.225,0" transform="translate(165.851 0.141)"/><line class="c" y1="716.697" x2="0.225" transform="translate(185.362 0.135)"/><line class="c" y1="716.697" x2="0.225" transform="translate(204.873 0.129)"/><line class="c" y1="716.697" x2="0.225" transform="translate(224.384 0.123)"/><line class="c" y1="716.697" x2="0.225" transform="translate(234.14 0.12)"/><line class="c" y1="716.697" x2="0.225" transform="translate(243.895 0.117)"/><line class="c" y1="716.697" x2="0.225" transform="translate(253.651 0.114)"/><line class="c" y1="716.697" x2="0.225" transform="translate(263.406 0.11)"/><line class="c" y1="716.697" x2="0.225" transform="translate(273.162 0.107)"/><line class="c" y1="716.697" x2="0.225" transform="translate(282.917 0.104)"/><line class="c" y1="716.697" x2="0.225" transform="translate(292.673 0.101)"/><line class="c" y1="716.697" x2="0.225" transform="translate(302.428 0.098)"/><line class="c" y1="716.697" x2="0.225" transform="translate(312.184 0.095)"/><line class="c" y1="716.697" x2="0.225" transform="translate(321.939 0.092)"/><line class="c" y1="716.697" x2="0.225" transform="translate(331.695 0.089)"/><line class="c" y1="716.697" x2="0.225" transform="translate(341.45 0.086)"/><line class="c" y1="716.697" x2="0.225" transform="translate(351.206 0.083)"/><line class="c" y1="716.697" x2="0.225" transform="translate(360.961 0.08)"/><line class="c" y1="716.697" x2="0.225" transform="translate(370.717 0.077)"/><line class="c" y1="716.697" x2="0.225" transform="translate(380.472 0.074)"/><line class="c" y1="716.697" x2="0.225" transform="translate(390.228 0.071)"/><line class="c" y1="716.697" x2="0.225" transform="translate(409.739 0.064)"/><line class="c" y1="716.697" x2="0.225" transform="translate(429.25 0.058)"/><line class="c" y1="716.697" x2="0.225" transform="translate(448.769 0.052)"/><line class="c" y1="716.697" x2="0.225" transform="translate(468.28 0.046)"/><line class="c" y1="716.697" x2="0.225" transform="translate(487.791 0.04)"/><line class="c" y1="716.697" x2="0.225" transform="translate(507.302 0.034)"/><line class="c" y1="716.697" x2="0.225" transform="translate(526.813 0.028)"/><line class="c" y1="716.697" x2="0.225" transform="translate(399.983 0.068)"/><line class="c" y1="716.697" x2="0.225" transform="translate(419.494 0.061)"/><line class="c" y1="716.697" x2="0.225" transform="translate(439.013 0.055)"/><line class="c" y1="716.697" x2="0.225" transform="translate(458.524 0.049)"/><line class="c" y1="716.697" x2="0.225" transform="translate(478.035 0.043)"/><line class="c" y1="716.697" x2="0.225" transform="translate(497.546 0.037)"/><line class="c" y1="716.697" x2="0.225" transform="translate(517.057 0.031)"/><line class="c" y1="716.697" x2="0.225" transform="translate(536.568 0.025)"/><line class="c" y1="716.697" x2="0.225" transform="translate(546.324 0.021)"/><line class="c" y1="716.697" x2="0.225" transform="translate(556.079 0.018)"/><line class="c" y1="716.697" x2="0.225" transform="translate(565.835 0.015)"/><line class="c" y1="716.697" x2="0.225" transform="translate(575.59 0.012)"/><line class="c" y1="716.697" x2="0.225" transform="translate(585.346 0.009)"/><line class="c" y1="716.697" x2="0.225" transform="translate(595.101 0.006)"/><line class="c" y1="716.697" x2="0.225" transform="translate(604.857 0.003)"/><line class="c" y1="716.697" x2="0.225" transform="translate(614.612 0)"/></g></g></svg>