<svg width="93" height="15" viewBox="0 0 93 15" fill="none" xmlns="http://www.w3.org/2000/svg">
<path d="M33.7421 5.66857H28.2784L26.5887 0.471191L24.9121 7.34515L26.5887 10.866L31.0098 14.0794L29.3212 8.88201L33.7421 5.66857Z" fill="#FF9A27"/>
<path d="M24.8999 5.66857H19.4351L23.8562 8.88201L22.1676 14.0794L26.5884 10.866V0.471191L24.8999 5.66857Z" fill="#FFB820"/>
<path d="M14.3068 5.66857H8.84197L7.15338 0.471191L5.47681 7.34515L7.15338 10.866L11.5745 14.0794L9.88564 8.88201L14.3068 5.66857Z" fill="#FF9A27"/>
<path d="M5.4648 5.66857H0L4.42113 8.88201L2.73226 14.0794L7.15339 10.866V0.471191L5.4648 5.66857Z" fill="#FFB820"/>
<path d="M72.6124 5.66857H67.1468L65.459 0.471191L63.7825 7.34515L65.459 10.866L69.8802 14.0794L68.1916 8.88201L72.6124 5.66857Z" fill="#FF9A27"/>
<path d="M63.7705 5.66857H58.3057L62.7268 8.88201L61.0379 14.0794L65.459 10.866V0.471191L63.7705 5.66857Z" fill="#FFB820"/>
<path d="M92.048 5.66857H86.5832L84.8946 0.471191L83.218 7.34515L84.8946 10.866L89.3157 14.0794L87.6269 8.88201L92.048 5.66857Z" fill="#FF9A27"/>
<path d="M83.2057 5.66857H77.7412L82.1621 8.88201L80.4735 14.0794L84.8946 10.866V0.471191L83.2057 5.66857Z" fill="#FFB820"/>
<path d="M53.1774 5.66857H47.7126L46.024 0.471191L44.3474 7.34515L46.024 10.866L50.4451 14.0794L48.7562 8.88201L53.1774 5.66857Z" fill="#FF9A27"/>
<path d="M44.3351 5.66857H38.8706L43.2917 8.88201L41.6029 14.0794L46.024 10.866V0.471191L44.3351 5.66857Z" fill="#FFB820"/>
</svg>
