<svg width="350" height="115" viewBox="0 0 350 115" fill="none" xmlns="http://www.w3.org/2000/svg">
<path d="M318.661 32.9532C320.665 36.4703 321.718 40.4529 321.716 44.5052C321.738 49.9272 319.897 55.191 316.504 59.4086C313.111 63.6263 308.373 66.5398 303.089 67.6576C297.805 68.7755 292.299 68.0292 287.5 65.5448C282.7 63.0604 278.901 58.9898 276.743 54.0197C274.584 49.0496 274.199 43.4842 275.652 38.2622C277.105 33.0402 280.308 28.4812 284.719 25.3543C289.13 22.2273 294.481 20.7237 299.868 21.0972C305.255 21.4707 310.348 23.6983 314.29 27.4044L326.463 10.137C317.59 2.84878 306.251 -0.705187 294.825 0.220967C283.4 1.14712 272.775 6.48139 265.182 15.1043C257.588 23.7272 253.617 34.9682 254.1 46.4684C254.584 57.9685 259.484 68.8336 267.774 76.7833C276.064 84.733 287.098 89.1494 298.561 89.1055C310.024 89.0617 321.025 84.5609 329.254 76.5479C337.483 68.5349 342.302 57.6327 342.698 46.1292C343.094 34.6257 339.037 23.4153 331.378 14.8509L318.661 32.9532Z" fill="white"/>
<path d="M286.864 43.1604H278.664L275.067 48.26C275.512 51.0123 276.447 53.6617 277.828 56.0811L286.864 43.1604Z" fill="url(#paint0_linear_414_473)"/>
<path d="M312.254 30.6199H304.054L282.195 61.6219C283.85 63.1739 285.719 64.4785 287.745 65.4954L312.254 30.6199Z" fill="url(#paint1_linear_414_473)"/>
<path d="M341.706 0.0488586L294.29 67.6386C297.053 68.1156 299.88 68.0887 302.634 67.5593L350 0.0488586H341.706Z" fill="url(#paint2_linear_414_473)"/>
<g filter="url(#filter0_d_414_473)">
<path fill-rule="evenodd" clip-rule="evenodd" d="M265.265 14.942C265.217 14.996 265.169 15.0501 265.121 15.1043C263.351 17.1141 261.778 19.2662 260.412 21.5306C261.995 21.1867 263.621 21.0056 265.265 20.9973V14.942Z" fill="white"/>
</g>
<path d="M220.941 44.2098V88.9727H241.879V44.4264C241.924 38.2174 244.404 32.2764 248.781 27.8908C253.159 23.5052 259.081 21.0284 265.265 20.9973V0.067749C253.575 0.0790873 242.363 4.72185 234.063 12.9873C225.764 21.2527 221.048 32.4728 220.941 44.2098Z" fill="white"/>
<path d="M220.941 44.2098V88.9727H241.879V44.4264C241.924 38.2174 244.404 32.2764 248.781 27.8908C253.159 23.5052 259.081 21.0284 265.265 20.9973V0.067749C253.575 0.0790873 242.363 4.72185 234.063 12.9873C225.764 21.2527 221.048 32.4728 220.941 44.2098Z" fill="white"/>
<path d="M200.745 59.2708L229.568 18.3866L246.641 30.4016L217.818 71.2859L200.745 59.2708Z" fill="url(#paint3_linear_414_473)"/>
<path d="M182.435 0.0279894C170.667 0.00343437 159.371 4.67337 151.031 13.0108C142.691 21.3482 137.991 32.6703 137.964 44.4871C137.964 44.532 137.964 44.5743 137.964 44.6192V114.22H158.905V82.2084C164.724 85.8988 171.319 88.1785 178.167 88.8671C185.015 89.5557 191.929 88.6342 198.361 86.1757C204.793 83.7171 210.567 79.789 215.226 74.7021C219.885 69.6153 223.301 63.5093 225.203 56.8677C227.105 50.2261 227.441 43.231 226.186 36.4362C224.93 29.6413 222.116 23.2333 217.967 17.7192C213.819 12.2051 208.449 7.73637 202.282 4.66671C196.116 1.59704 189.323 0.0107197 182.44 0.0332711L182.435 0.0279894ZM182.435 68.0114C176.217 68.0185 170.249 65.5515 165.838 61.1506C161.427 56.7496 158.932 50.7732 158.9 44.5294V44.5056V44.4871C158.877 39.8081 160.238 35.2276 162.81 31.326C165.382 27.4244 169.05 24.3772 173.348 22.5707C177.647 20.7641 182.382 20.2795 186.955 21.1782C191.528 22.0769 195.733 24.3185 199.036 27.6189C202.339 30.9193 204.592 35.13 205.51 39.7174C206.427 44.3048 205.968 49.0625 204.19 53.3876C202.412 57.7127 199.396 61.4105 195.523 64.0124C191.65 66.6144 187.095 68.0034 182.435 68.0035V68.0114Z" fill="white"/>
<path d="M146.434 18.3761L118.83 57.9232L135.145 71.1346L163.601 30.3826L146.434 18.3761Z" fill="url(#paint4_linear_414_473)"/>
<path d="M99.4945 20.9814C104.121 21.0044 108.638 22.4031 112.474 25.001C116.31 27.599 119.294 31.2797 121.049 35.5787C122.804 39.8778 123.251 44.6024 122.334 49.1565C121.418 53.7105 119.178 57.8898 115.898 61.167C112.618 64.4442 108.445 66.6724 103.905 67.5704C99.3655 68.4684 94.6625 67.996 90.3898 66.2127C86.1172 64.4295 82.4663 61.4153 79.898 57.5506C77.3297 53.6859 75.959 49.1439 75.959 44.4978C75.9827 38.248 78.4736 32.2628 82.8855 27.8544C87.2975 23.4461 93.2704 20.9744 99.4945 20.9814ZM99.4945 0.0466051C90.7458 0.0852405 82.2047 2.72553 74.9491 7.63419C67.6935 12.5428 62.0488 19.4998 58.7275 27.627C55.4061 35.7542 54.557 44.6872 56.2874 53.2985C58.0177 61.9098 62.2499 69.8134 68.4498 76.0115C74.6497 82.2097 82.5392 86.4247 91.1227 88.1243C99.7061 89.824 108.599 88.9322 116.678 85.5616C124.757 82.1909 131.66 76.4924 136.517 69.1854C141.374 61.8785 143.966 53.2906 143.966 44.5057C143.939 32.6889 139.238 21.3668 130.899 13.0294C122.559 4.69199 111.263 0.0220501 99.4945 0.0466051Z" fill="white"/>
<path d="M63.5233 18.3549L38.7642 53.6453L52.1503 71.1927L80.4855 30.6442L63.5233 18.3549Z" fill="url(#paint5_linear_414_473)"/>
<path d="M35.9929 34.6446C33.5667 34.2799 30.4432 33.9708 27.8986 33.4608C25.8208 33.119 23.8704 32.23 22.2463 30.8846C21.6605 30.4089 21.1923 29.8036 20.8782 29.116C20.5642 28.4284 20.4128 27.6772 20.4358 26.9211C20.5832 20.9179 30.9063 20.91 32.0378 20.91C38.5658 21.3447 44.8261 23.6806 50.0526 27.6319L61.4336 11.3845C53.3687 4.22581 43.0218 0.196287 32.2589 0.0226577C24.4799 -0.249933 16.8128 1.94284 10.3443 6.29017C7.33188 8.56226 4.84942 11.467 3.07012 14.8016C1.29081 18.1363 0.25751 21.8206 0.0422919 25.5976C-0.172927 29.3745 0.435124 33.1531 1.82402 36.6698C3.21292 40.1865 5.34923 43.3566 8.08389 45.9588C12.5196 49.9598 17.9697 52.6527 23.833 53.7404C27.2592 54.4127 30.728 54.8435 34.214 55.0298C37.6191 55.2174 42.0662 56.2823 42.432 60.8006C42.4803 61.7696 42.2773 62.7346 41.8428 63.6012C41.4083 64.4677 40.7572 65.2062 39.9532 65.7443C37.0265 67.5901 33.5348 68.3135 30.1195 67.7815C22.2568 67.4248 11.9626 60.0898 11.9626 60.0845L0.76061 76.065C8.40773 83.6448 18.5226 88.1982 29.2459 88.8881C62.5072 89.908 63.0809 62.2855 63.0809 62.2855C63.0809 39.3822 42.5557 35.6275 35.9929 34.6446Z" fill="white"/>
<defs>
<filter id="filter0_d_414_473" x="257.412" y="11.942" width="12.8524" height="14.5886" filterUnits="userSpaceOnUse" color-interpolation-filters="sRGB">
<feFlood flood-opacity="0" result="BackgroundImageFix"/>
<feColorMatrix in="SourceAlpha" type="matrix" values="0 0 0 0 0 0 0 0 0 0 0 0 0 0 0 0 0 0 127 0" result="hardAlpha"/>
<feOffset dx="1" dy="1"/>
<feGaussianBlur stdDeviation="2"/>
<feColorMatrix type="matrix" values="0 0 0 0 0.211765 0 0 0 0 0.309804 0 0 0 0 0.419608 0 0 0 1 0"/>
<feBlend mode="normal" in2="BackgroundImageFix" result="effect1_dropShadow_414_473"/>
<feBlend mode="normal" in="SourceGraphic" in2="effect1_dropShadow_414_473" result="shape"/>
</filter>
<linearGradient id="paint0_linear_414_473" x1="277.132" y1="53.7296" x2="281.393" y2="49.3856" gradientUnits="userSpaceOnUse">
<stop stop-color="#394063"/>
<stop offset="0.431" stop-color="#9498AA"/>
<stop offset="0.821" stop-color="#E1E2E7"/>
<stop offset="1" stop-color="white"/>
</linearGradient>
<linearGradient id="paint1_linear_414_473" x1="285" y1="65" x2="294.205" y2="56.8634" gradientUnits="userSpaceOnUse">
<stop stop-color="#394063"/>
<stop offset="0.431" stop-color="#9498AA"/>
<stop offset="0.821" stop-color="#E1E2E7"/>
<stop offset="1" stop-color="white"/>
</linearGradient>
<linearGradient id="paint2_linear_414_473" x1="298" y1="68" x2="309.715" y2="56.8217" gradientUnits="userSpaceOnUse">
<stop stop-color="#394063"/>
<stop offset="0.431" stop-color="#9498AA"/>
<stop offset="0.821" stop-color="#E1E2E7"/>
<stop offset="1" stop-color="white"/>
</linearGradient>
<linearGradient id="paint3_linear_414_473" x1="219.878" y1="62.0312" x2="217.439" y2="43.359" gradientUnits="userSpaceOnUse">
<stop stop-color="#394063"/>
<stop offset="0.431" stop-color="#9498AA"/>
<stop offset="0.821" stop-color="#E1E2E7"/>
<stop offset="1" stop-color="white"/>
</linearGradient>
<linearGradient id="paint4_linear_414_473" x1="126.665" y1="61.5325" x2="155.065" y2="34.3689" gradientUnits="userSpaceOnUse">
<stop stop-color="#394063"/>
<stop offset="0.431" stop-color="#9498AA"/>
<stop offset="0.821" stop-color="#E1E2E7"/>
<stop offset="1" stop-color="white"/>
</linearGradient>
<linearGradient id="paint5_linear_414_473" x1="46.0654" y1="61.5762" x2="74.3439" y2="36.4091" gradientUnits="userSpaceOnUse">
<stop stop-color="#394063"/>
<stop offset="0.431" stop-color="#9498AA"/>
<stop offset="0.821" stop-color="#E1E2E7"/>
<stop offset="1" stop-color="white"/>
</linearGradient>
</defs>
</svg>
