<svg xmlns="http://www.w3.org/2000/svg" xmlns:xlink="http://www.w3.org/1999/xlink" width="305" height="319" viewBox="0 0 305 319"><defs><style>.a{fill:none;stroke:#707070;}.b{clip-path:url(#a);}.c,.d{fill:#fff;stroke:#ecf7ff;stroke-width:4px;}.c{stroke-miterlimit:10;}</style><clipPath id="a"><path class="a" d="M352.931-26.475h-305l.551,319H352.931Z" transform="translate(0 -162.554)"/></clipPath></defs><g class="b" transform="translate(-47.931 189.029)"><g transform="translate(133.048 390.321) rotate(-140)"><line class="c" x1="1.097" y1="589.718" transform="translate(0 0)"/><line class="c" x1="1.097" y1="589.718" transform="translate(8.021 0.015)"/><line class="c" x1="1.097" y1="589.718" transform="translate(16.042 0.03)"/><line class="c" x1="1.097" y1="589.718" transform="translate(24.063 0.045)"/><line class="c" x1="1.097" y1="589.718" transform="translate(32.084 0.06)"/><line class="c" x1="1.097" y1="589.718" transform="translate(40.105 0.075)"/><line class="c" x1="1.097" y1="589.718" transform="translate(48.126 0.09)"/><line class="c" x1="1.097" y1="589.718" transform="translate(56.147 0.105)"/><line class="c" x1="1.097" y1="589.718" transform="translate(64.168 0.119)"/><line class="c" x1="1.097" y1="589.718" transform="translate(80.209 0.149)"/><line class="c" x1="1.097" y1="589.718" transform="translate(96.251 0.179)"/><line class="c" x1="1.097" y1="589.718" transform="translate(112.293 0.209)"/><line class="c" x1="1.097" y1="589.718" transform="translate(128.342 0.239)"/><line class="c" x1="1.097" y1="589.718" transform="translate(144.384 0.269)"/><line class="c" x1="1.097" y1="589.718" transform="translate(160.425 0.299)"/><line class="c" x1="1.097" y1="589.718" transform="translate(176.467 0.328)"/><line class="c" x1="1.097" y1="589.718" transform="translate(72.189 0.134)"/><line class="c" x1="1.097" y1="589.718" transform="translate(88.23 0.164)"/><line class="c" x1="1.097" y1="589.718" transform="translate(104.272 0.194)"/><line class="c" x1="1.097" y1="589.718" transform="translate(120.321 0.224)"/><path class="d" d="M1.1,589.719.455,244.756,0,0" transform="translate(136.363 0.254)"/><line class="c" x1="1.097" y1="589.718" transform="translate(152.404 0.284)"/><line class="c" x1="1.097" y1="589.718" transform="translate(168.446 0.314)"/><line class="c" x1="1.097" y1="589.718" transform="translate(184.488 0.343)"/><line class="c" x1="1.097" y1="589.718" transform="translate(192.509 0.358)"/><line class="c" x1="1.097" y1="589.718" transform="translate(200.53 0.373)"/><line class="c" x1="1.097" y1="589.718" transform="translate(208.551 0.388)"/><line class="c" x1="1.097" y1="589.718" transform="translate(216.572 0.403)"/><line class="c" x1="1.097" y1="589.718" transform="translate(224.593 0.418)"/><line class="c" x1="1.097" y1="589.718" transform="translate(232.614 0.433)"/><line class="c" x1="1.097" y1="589.718" transform="translate(240.635 0.448)"/><line class="c" x1="1.097" y1="589.718" transform="translate(248.656 0.463)"/><line class="c" x1="1.097" y1="589.718" transform="translate(256.677 0.478)"/><line class="c" x1="1.097" y1="589.718" transform="translate(264.698 0.493)"/><line class="c" x1="1.097" y1="589.718" transform="translate(272.719 0.508)"/><line class="c" x1="1.097" y1="589.718" transform="translate(280.74 0.523)"/><line class="c" x1="1.097" y1="589.718" transform="translate(288.761 0.537)"/><line class="c" x1="1.097" y1="589.718" transform="translate(296.782 0.552)"/><line class="c" x1="1.097" y1="589.718" transform="translate(304.803 0.567)"/><line class="c" x1="1.097" y1="589.718" transform="translate(312.823 0.582)"/><line class="c" x1="1.097" y1="589.718" transform="translate(320.844 0.597)"/><line class="c" x1="1.097" y1="589.718" transform="translate(336.886 0.627)"/><line class="c" x1="1.097" y1="589.718" transform="translate(352.928 0.657)"/><line class="c" x1="1.097" y1="589.718" transform="translate(368.977 0.687)"/><line class="c" x1="1.097" y1="589.718" transform="translate(385.019 0.717)"/><line class="c" x1="1.097" y1="589.718" transform="translate(401.06 0.746)"/><line class="c" x1="1.097" y1="589.718" transform="translate(417.102 0.776)"/><line class="c" x1="1.097" y1="589.718" transform="translate(433.144 0.806)"/><line class="c" x1="1.097" y1="589.718" transform="translate(328.865 0.612)"/><line class="c" x1="1.097" y1="589.718" transform="translate(344.907 0.642)"/><line class="c" x1="1.097" y1="589.718" transform="translate(360.956 0.672)"/><line class="c" x1="1.097" y1="589.718" transform="translate(376.998 0.702)"/><line class="c" x1="1.097" y1="589.718" transform="translate(393.039 0.732)"/><line class="c" x1="1.097" y1="589.718" transform="translate(409.081 0.761)"/><line class="c" x1="1.097" y1="589.718" transform="translate(425.123 0.791)"/><line class="c" x1="1.097" y1="589.718" transform="translate(441.165 0.821)"/><line class="c" x1="1.097" y1="589.718" transform="translate(449.186 0.836)"/><line class="c" x1="1.097" y1="589.718" transform="translate(457.207 0.851)"/><line class="c" x1="1.097" y1="589.718" transform="translate(465.228 0.866)"/><line class="c" x1="1.097" y1="589.718" transform="translate(473.249 0.881)"/><line class="c" x1="1.097" y1="589.718" transform="translate(481.27 0.896)"/><line class="c" x1="1.097" y1="589.718" transform="translate(489.291 0.911)"/><line class="c" x1="1.097" y1="589.718" transform="translate(497.312 0.926)"/><line class="c" x1="1.097" y1="589.718" transform="translate(505.333 0.941)"/></g></g></svg>